HIERARCHY
ROOT Hips
{
    OFFSET 0.000000 0.000000 0.000000
    CHANNELS 6 Xposition Yposition Zposition Zrotation Xrotation Yrotation
    JOINT Spine
    {
        OFFSET -0.000000 6.925600 0.000000
        CHANNELS 3 Zrotation Xrotation Yrotation
        JOINT Spine1
        {
            OFFSET -0.000000 16.343796 0.000000
            CHANNELS 3 Zrotation Xrotation Yrotation
            JOINT Neck
            {
                OFFSET -0.000000 18.032967 0.000000
                CHANNELS 3 Zrotation Xrotation Yrotation
                JOINT Head
                {
                    OFFSET -0.000000 13.091072 1.689171
                    CHANNELS 3 Zrotation Xrotation Yrotation
                    End Site
                    {
                        OFFSET -0.000000 16.891708 0.000000
                    }
                }
            }
            JOINT LeftShoulder
            {
                OFFSET 3.336773 14.146137 -0.012206
                CHANNELS 3 Zrotation Xrotation Yrotation
                JOINT LeftArm
                {
                    OFFSET 11.765518 0.000000 0.000000
                    CHANNELS 3 Zrotation Xrotation Yrotation
                    JOINT LeftForeArm
                    {
                        OFFSET 25.163450 0.000000 0.000000
                        CHANNELS 3 Zrotation Xrotation Yrotation
                        JOINT LeftHand
                        {
                            OFFSET 21.783554 0.000000 0.000000
                            CHANNELS 3 Zrotation Xrotation Yrotation
                            End Site
                            {
                                OFFSET 12.668781 0.000000 0.000000
                            }
                        }
                    }
                }
            }
            JOINT RightShoulder
            {
                OFFSET -3.409204 14.146137 -0.012206
                CHANNELS 3 Zrotation Xrotation Yrotation
                JOINT RightArm
                {
                    OFFSET -11.765518 0.000000 0.000000
                    CHANNELS 3 Zrotation Xrotation Yrotation
                    JOINT RightForeArm
                    {
                        OFFSET -25.163450 0.000000 0.000000
                        CHANNELS 3 Zrotation Xrotation Yrotation
                        JOINT RightHand
                        {
                            OFFSET -21.783554 0.000000 0.000000
                            CHANNELS 3 Zrotation Xrotation Yrotation
                            End Site
                            {
                                OFFSET -12.668781 0.000000 0.000000
                            }
                        }
                    }
                }
            }
        }
    }
    JOINT LeftUpLeg
    {
        OFFSET 8.445854 0.000000 0.000000
        CHANNELS 3 Zrotation Xrotation Yrotation
        JOINT LeftLeg
        {
            OFFSET -0.000000 -40.674755 0.000000
            CHANNELS 3 Zrotation Xrotation Yrotation
            JOINT LeftFoot
            {
                OFFSET -0.000000 -37.111794 0.000000
                CHANNELS 3 Zrotation Xrotation Yrotation
                JOINT LeftToeBase
                {
                    OFFSET -0.000000 -5.489805 12.668781
                    CHANNELS 3 Zrotation Xrotation Yrotation
                    End Site
                    {
                        OFFSET -0.000000 0.000000 3.378341
                    }
                }
            }
        }
    }
    JOINT RightUpLeg
    {
        OFFSET -8.445854 0.000000 0.000000
        CHANNELS 3 Zrotation Xrotation Yrotation
        JOINT RightLeg
        {
            OFFSET -0.000000 -40.674755 0.000000
            CHANNELS 3 Zrotation Xrotation Yrotation
            JOINT RightFoot
            {
                OFFSET -0.000000 -37.111794 0.000000
                CHANNELS 3 Zrotation Xrotation Yrotation
                JOINT RightToeBase
                {
                    OFFSET -0.000000 -5.489805 12.668781
                    CHANNELS 3 Zrotation Xrotation Yrotation
                    End Site
                    {
                        OFFSET -0.000000 0.000000 3.378341
                    }
                }
            }
        }
    }
}
MOTION
Frames:    13
Frame Time:    0.008333
24.178848    83.361473    113.486694    -0.708812    -6.291831    -141.827377    3.763339    17.022894    -9.954636    -6.114455    22.935863    -1.891812    9.564484    26.091473    -11.192610    6.005235    -33.516884    -7.022571    4.737719    9.601799    9.294441    -43.789162    45.510849    -39.095993    12.366693    -10.574160    -44.435730    14.027094    -6.107233    -4.540411    -10.290604    -0.603223    -0.042127    35.394684    31.976494    58.556454    -21.682163    5.974813    37.317059    -63.414684    9.607841    6.067807    0.729836    -9.919831    -13.663836    -3.516442    10.382289    14.071911    -4.553602    -7.726074    12.926112    -0.721286    -1.962154    -2.307910    -3.198113    -6.664307    0.329317    -4.385409    -5.351462    3.149310    5.631353    -1.838723    0.683495    -4.403533    6.173362    2.203618    
24.213413    83.356308    113.475632    -0.689547    -6.316405    -141.808228    3.855278    17.141926    -10.044961    -6.217406    22.859610    -1.899302    9.597763    26.114317    -11.182916    6.120720    -33.788345    -6.960885    4.644481    10.385560    9.977340    -41.906624    46.125671    -41.500526    13.026094    -11.262360    -43.416683    13.950233    -6.687602    -4.735652    -10.359198    -0.636356    -0.075989    35.735870    31.925119    58.403080    -21.684368    6.084378    37.657398    -63.440838    9.750814    6.127422    0.748161    -9.966585    -13.725470    -3.526647    10.394347    14.135545    -4.569527    -7.736108    12.933916    -0.712707    -1.954039    -2.313758    -3.184081    -6.690181    0.324141    -4.374804    -5.368152    3.163664    5.606981    -1.839673    0.673806    -4.408855    6.196083    2.182783    
24.264336    83.341995    113.472076    -0.650693    -6.411727    -141.837997    3.848952    17.203611    -10.085271    -6.281557    22.798248    -1.902875    9.715565    26.102081    -11.218978    6.091442    -34.041805    -6.946020    4.647841    10.449017    10.051868    -42.043480    46.055557    -41.386051    13.100225    -11.249020    -43.460499    14.051699    -6.646103    -4.762876    -10.397563    -0.697868    -0.090185    35.768642    31.998091    58.431549    -21.717222    6.083667    37.843117    -63.469906    9.828394    6.079140    0.763041    -10.083429    -13.731392    -3.548878    10.396266    14.158109    -4.604685    -7.809775    12.945572    -0.677836    -1.893307    -2.273445    -3.039423    -6.932654    0.370656    -4.664428    -5.126286    3.162213    5.742788    -1.954805    0.687247    -4.422588    6.203958    2.206181    
24.283413    83.346497    113.449844    -0.629359    -6.369438    -141.760666    4.023428    17.332508    -10.247408    -6.394600    22.766819    -1.925634    9.722520    26.052763    -11.220078    6.172895    -34.201912    -6.923688    4.784633    9.807212    9.443265    -43.432735    46.167824    -39.508812    13.274802    -11.294100    -43.873344    14.138358    -6.558644    -4.673276    -10.457917    -0.747069    -0.123888    35.784348    32.070938    58.480556    -21.743103    6.069915    38.028694    -63.501492    9.897443    6.019610    0.804054    -10.062174    -13.849030    -3.539726    10.390694    14.224346    -4.630045    -7.795031    12.942779    -0.683136    -1.906975    -2.289798    -2.999759    -6.855459    0.309570    -4.636198    -5.206228    3.169424    5.697161    -1.915573    0.673112    -4.388616    6.170440    2.169614    
24.314114    83.342781    113.436913    -0.599890    -6.402880    -141.750366    4.102186    17.412411    -10.337254    -6.477136    22.721991    -1.936652    9.792836    26.000914    -11.260028    6.102237    -34.364101    -6.947072    4.795843    9.853696    9.461516    -43.567043    46.126663    -39.364105    13.336650    -11.305692    -43.922920    14.274680    -6.541566    -4.652771    -10.505350    -0.774770    -0.153145    36.728989    31.985487    58.370419    -21.989880    6.306101    37.751564    -63.345303    9.796539    6.632045    0.828122    -10.115657    -13.868567    -3.546140    10.395535    14.225697    -4.634167    -7.796412    12.961454    -0.696833    -1.913490    -2.265585    -2.987399    -6.883492    0.304333    -4.613976    -5.249296    3.173514    5.669267    -1.895171    0.667487    -4.390968    6.179801    2.161440    
24.363070    83.330070    113.432587    -0.555005    -6.505623    -141.802872    4.076277    17.441322    -10.348883    -6.507333    22.682117    -1.937747    9.828773    25.960329    -11.288095    6.080725    -34.523373    -6.960753    4.801653    9.953949    9.494352    -43.617271    46.069069    -39.344620    13.391023    -11.353360    -43.923290    14.394178    -6.571904    -4.647276    -10.536631    -0.790610    -0.161329    35.628777    32.203308    58.660599    -21.809124    5.982123    38.372513    -63.549416    9.999722    5.862899    0.843221    -10.236687    -13.830106    -3.557122    10.399219    14.264030    -4.656415    -7.811364    12.942014    -0.709298    -1.908613    -2.218581    -2.980524    -7.021570    0.366817    -4.611627    -5.250558    3.168805    5.656326    -1.894006    0.666143    -4.421288    6.212602    2.189699    
24.397402    83.326691    113.418053    -0.522860    -6.545320    -141.817596    4.115652    17.494108    -10.407933    -6.548073    22.672195    -1.947158    9.815603    25.924530    -11.296176    6.084136    -34.667671    -6.967397    4.801360    10.010074    9.463698    -43.766834    45.961857    -39.193546    13.396458    -11.442271    -43.991005    14.146975    -6.615010    -4.441034    -10.571120    -0.836412    -0.162551    35.637043    32.251373    58.684978    -21.869493    5.950855    38.546257    -63.534447    10.043055    5.839283    0.870683    -10.281301    -13.832917    -3.552663    10.382371    14.306417    -4.680227    -7.820719    12.934583    -0.688425    -1.892987    -2.242363    -2.959561    -7.059963    0.377403    -4.596136    -5.298162    3.177507    5.627215    -1.835720    0.665779    -4.386647    6.165214    2.172488    
24.417072    83.335754    113.398064    -0.508247    -6.516870    -141.810318    4.229495    17.590004    -10.513752    -6.632127    22.694540    -1.957227    9.822781    25.861633    -11.314152    6.029704    -34.782520    -6.992225    4.790894    10.009271    9.436383    -43.913704    45.887871    -39.016087    13.417463    -11.476480    -44.014778    14.280797    -6.640271    -4.417830    -10.592227    -0.882815    -0.164040    36.470432    32.159645    58.552082    -22.134762    6.153500    38.356621    -63.368046    9.979771    6.379373    0.916683    -10.249631    -13.843014    -3.536663    10.351865    14.295267    -4.734710    -7.844127    12.930229    -0.654777    -1.845425    -2.229133    -2.922440    -7.006301    0.368359    -4.572473    -5.366862    3.162756    5.622508    -1.862290    0.674064    -4.435272    6.229772    2.199610    
24.446640    83.334991    113.381264    -0.479138    -6.558389    -141.829178    4.269129    17.620041    -10.603107    -6.696289    22.700846    -1.971267    9.813870    25.851374    -11.318400    5.977472    -34.922237    -7.002324    4.803460    10.027085    9.439569    -44.014992    45.878590    -38.898441    13.457439    -11.574502    -44.000332    14.358935    -6.726391    -4.402871    -10.632235    -0.929572    -0.137342    36.489288    32.211712    58.606052    -22.203236    6.133163    38.491833    -63.363197    10.020696    6.368297    0.937903    -10.281894    -13.852508    -3.526497    10.315846    14.317385    -4.735707    -7.794925    12.953316    -0.705437    -1.898078    -2.205343    -2.904784    -7.040787    0.382964    -4.557629    -5.413857    3.180137    5.574496    -1.841782    0.670179    -4.412697    6.198096    2.189615    
24.478251    83.329346    113.355743    -0.441379    -6.659438    -141.849548    4.241613    17.564651    -10.684346    -6.735850    22.735811    -1.990273    9.823222    25.846081    -11.333061    5.851913    -35.051136    -7.031360    4.805813    10.075353    9.461946    -44.791203    45.043205    -38.090370    12.844022    -10.995292    -44.697723    14.622602    -6.294835    -4.293701    -10.658941    -0.985379    -0.102458    36.430080    32.287334    58.710262    -22.240194    6.096564    38.589451    -63.393375    10.038142    6.333252    0.943702    -10.363216    -13.828912    -3.523427    10.284013    14.314575    -4.783424    -7.841586    12.939782    -0.668616    -1.839129    -2.175048    -2.904986    -7.117120    0.389387    -4.561887    -5.476584    3.174326    5.556324    -1.821262    0.695378    -4.426486    6.223412    2.186652    
24.504602    83.330536    113.335510    -0.418416    -6.708255    -141.890213    4.267032    17.574194    -10.751212    -6.810772    22.760483    -1.994575    9.811909    25.802362    -11.357885    5.766081    -35.111595    -7.078171    4.835338    10.092332    9.459687    -44.872478    45.021141    -37.987492    12.845120    -11.106893    -44.726044    14.649054    -6.398402    -4.244726    -10.660453    -1.014142    -0.118542    36.448254    32.305592    58.797771    -22.286856    6.102952    38.722775    -63.382877    10.082143    6.348160    0.959521    -10.391465    -13.807104    -3.509538    10.248809    14.344586    -4.809896    -7.831912    12.934899    -0.684496    -1.855516    -2.167281    -2.891304    -7.158640    0.411541    -4.553554    -5.512123    3.190661    5.542360    -1.826344    0.698997    -4.442557    6.247483    2.191464    
24.536682    83.331635    113.316086    -0.391139    -6.760396    -141.928116    4.276249    17.591385    -10.810872    -6.855422    22.778063    -2.003691    9.835039    25.769474    -11.404402    5.604106    -35.215435    -7.146629    4.853260    10.092030    9.482632    -44.152321    45.860287    -38.678947    13.509236    -11.857012    -44.029541    14.543516    -6.971568    -4.218998    -10.652933    -1.050454    -0.154675    36.331657    32.368481    58.965801    -22.345779    6.081778    38.823563    -63.409389    10.138207    6.289871    0.983030    -10.432185    -13.767664    -3.500511    10.220191    14.334094    -4.844272    -7.830299    12.945906    -0.658511    -1.829413    -2.181611    -2.867543    -7.216383    0.420000    -4.554824    -5.535534    3.222406    5.520929    -1.801550    0.698208    -4.421558    6.222970    2.174642    
24.562082    83.333763    113.295296    -0.367223    -6.819433    -141.974136    4.310306    17.612446    -10.891459    -6.949093    22.740213    -2.012016    9.828210    25.784300    -11.420245    5.462169    -35.299545    -7.187619    4.876601    10.150609    9.537449    -44.134636    45.862968    -38.661919    13.510223    -11.933639    -44.062347    14.563217    -7.037141    -4.155889    -10.668568    -1.092008    -0.155525    36.256794    32.471981    59.091766    -22.414152    6.059305    38.940010    -63.438950    10.210116    6.214716    0.989047    -10.475416    -13.700809    -3.473688    10.204925    14.335662    -4.884159    -7.863908    12.924098    -0.640508    -1.801593    -2.169177    -2.856490    -7.278096    0.399161    -4.546133    -5.555483    3.271911    5.504227    -1.781938    0.717544    -4.405293    6.196688    2.172684    
